<?xml version="1.0" encoding="UTF-8" standalone="no"?>
<!DOCTYPE svg PUBLIC "-//W3C//DTD SVG 1.1//EN"
 "http://www.w3.org/Graphics/SVG/1.1/DTD/svg11.dtd">
<!-- Generated by graphviz version 2.36.0 (20140111.2315)
 -->
<!-- Title: G Pages: 1 -->
<svg width="701pt" height="539pt"
 viewBox="0.00 0.00 701.01 538.67" xmlns="http://www.w3.org/2000/svg" xmlns:xlink="http://www.w3.org/1999/xlink">
<g id="graph0" class="graph" transform="scale(1.33333 1.33333) rotate(0) translate(4 400)">
<title>G</title>
<polygon fill="white" stroke="none" points="-4,4 -4,-400 521.758,-400 521.758,4 -4,4"/>
<!-- Consumer_c2 -->
<g id="node1" class="node"><title>Consumer_c2</title>
<ellipse fill="none" stroke="red" cx="79.7577" cy="-234" rx="59.3447" ry="18"/>
<text text-anchor="middle" x="79.7577" y="-229.8" font-family="Times,serif" font-size="14.00">Consumer_c2</text>
</g>
<!-- Computer_c2 -->
<g id="node10" class="node"><title>Computer_c2</title>
<ellipse fill="none" stroke="blue" cx="215.758" cy="-162" rx="58.368" ry="18"/>
<text text-anchor="middle" x="215.758" y="-157.8" font-family="Times,serif" font-size="14.00">Computer_c2</text>
</g>
<!-- Consumer_c2&#45;&gt;Computer_c2 -->
<g id="edge13" class="edge"><title>Consumer_c2&#45;&gt;Computer_c2</title>
<path fill="none" stroke="purple" d="M108.6,-218.155C128.794,-207.76 155.979,-193.769 177.914,-182.479"/>
<polygon fill="purple" stroke="purple" points="179.668,-185.512 186.957,-177.824 176.464,-179.288 179.668,-185.512"/>
</g>
<!-- Provider_p1 -->
<g id="node2" class="node"><title>Provider_p1</title>
<ellipse fill="none" stroke="red" cx="464.758" cy="-378" rx="53.2432" ry="18"/>
<text text-anchor="middle" x="464.758" y="-373.8" font-family="Times,serif" font-size="14.00">Provider_p1</text>
</g>
<!-- Server_s1 -->
<g id="node6" class="node"><title>Server_s1</title>
<ellipse fill="none" stroke="blue" cx="338.758" cy="-306" rx="45.2082" ry="18"/>
<text text-anchor="middle" x="338.758" y="-301.8" font-family="Times,serif" font-size="14.00">Server_s1</text>
</g>
<!-- Provider_p1&#45;&gt;Server_s1 -->
<g id="edge10" class="edge"><title>Provider_p1&#45;&gt;Server_s1</title>
<path fill="none" stroke="purple" d="M438.344,-362.326C419.36,-351.779 393.594,-337.464 373.026,-326.038"/>
<polygon fill="purple" stroke="purple" points="374.717,-322.974 364.276,-321.177 371.318,-329.093 374.717,-322.974"/>
</g>
<!-- Provider_p2 -->
<g id="node3" class="node"><title>Provider_p2</title>
<ellipse fill="none" stroke="red" cx="338.758" cy="-378" rx="53.2432" ry="18"/>
<text text-anchor="middle" x="338.758" y="-373.8" font-family="Times,serif" font-size="14.00">Provider_p2</text>
</g>
<!-- Provider_p2&#45;&gt;Server_s1 -->
<g id="edge11" class="edge"><title>Provider_p2&#45;&gt;Server_s1</title>
<path fill="none" stroke="purple" d="M338.758,-359.697C338.758,-351.983 338.758,-342.712 338.758,-334.112"/>
<polygon fill="purple" stroke="purple" points="342.258,-334.104 338.758,-324.104 335.258,-334.104 342.258,-334.104"/>
</g>
<!-- Consumer_c1 -->
<g id="node4" class="node"><title>Consumer_c1</title>
<ellipse fill="none" stroke="red" cx="215.758" cy="-234" rx="59.3447" ry="18"/>
<text text-anchor="middle" x="215.758" y="-229.8" font-family="Times,serif" font-size="14.00">Consumer_c1</text>
</g>
<!-- Consumer_c1&#45;&gt;Computer_c2 -->
<g id="edge12" class="edge"><title>Consumer_c1&#45;&gt;Computer_c2</title>
<path fill="none" stroke="purple" d="M215.758,-215.697C215.758,-207.983 215.758,-198.712 215.758,-190.112"/>
<polygon fill="purple" stroke="purple" points="219.258,-190.104 215.758,-180.104 212.258,-190.104 219.258,-190.104"/>
</g>
<!-- Computer_c1 -->
<g id="node5" class="node"><title>Computer_c1</title>
<ellipse fill="none" stroke="blue" cx="392.758" cy="-18" rx="58.368" ry="18"/>
<text text-anchor="middle" x="392.758" y="-13.8" font-family="Times,serif" font-size="14.00">Computer_c1</text>
</g>
<!-- Router_r3 -->
<g id="node9" class="node"><title>Router_r3</title>
<ellipse fill="none" stroke="blue" cx="338.758" cy="-234" rx="45.4469" ry="18"/>
<text text-anchor="middle" x="338.758" y="-229.8" font-family="Times,serif" font-size="14.00">Router_r3</text>
</g>
<!-- Server_s1&#45;&gt;Router_r3 -->
<g id="edge6" class="edge"><title>Server_s1&#45;&gt;Router_r3</title>
<path fill="none" stroke="black" d="M332.879,-288.055C332.061,-280.346 331.819,-271.027 332.153,-262.364"/>
<polygon fill="black" stroke="black" points="335.652,-262.491 332.845,-252.275 328.668,-262.012 335.652,-262.491"/>
</g>
<!-- Server_s1&#45;&gt;Router_r3 -->
<g id="edge14" class="edge"><title>Server_s1&#45;&gt;Router_r3</title>
<path fill="none" stroke="green" d="M344.636,-288.055C345.454,-280.346 345.696,-271.027 345.363,-262.364"/>
<polygon fill="green" stroke="green" points="348.847,-262.012 344.671,-252.275 341.863,-262.491 348.847,-262.012"/>
</g>
<!-- Router_r1 -->
<g id="node7" class="node"><title>Router_r1</title>
<ellipse fill="none" stroke="blue" cx="392.758" cy="-90" rx="45.4469" ry="18"/>
<text text-anchor="middle" x="392.758" y="-85.8" font-family="Times,serif" font-size="14.00">Router_r1</text>
</g>
<!-- Router_r1&#45;&gt;Computer_c1 -->
<g id="edge2" class="edge"><title>Router_r1&#45;&gt;Computer_c1</title>
<path fill="none" stroke="black" d="M392.758,-71.6966C392.758,-63.9827 392.758,-54.7125 392.758,-46.1124"/>
<polygon fill="black" stroke="black" points="396.258,-46.1043 392.758,-36.1043 389.258,-46.1044 396.258,-46.1043"/>
</g>
<!-- Router_r2 -->
<g id="node8" class="node"><title>Router_r2</title>
<ellipse fill="none" stroke="blue" cx="392.758" cy="-162" rx="45.4469" ry="18"/>
<text text-anchor="middle" x="392.758" y="-157.8" font-family="Times,serif" font-size="14.00">Router_r2</text>
</g>
<!-- Router_r2&#45;&gt;Router_r1 -->
<g id="edge4" class="edge"><title>Router_r2&#45;&gt;Router_r1</title>
<path fill="none" stroke="black" d="M392.758,-143.697C392.758,-135.983 392.758,-126.712 392.758,-118.112"/>
<polygon fill="black" stroke="black" points="396.258,-118.104 392.758,-108.104 389.258,-118.104 396.258,-118.104"/>
</g>
<!-- Router_r3&#45;&gt;Router_r2 -->
<g id="edge5" class="edge"><title>Router_r3&#45;&gt;Router_r2</title>
<path fill="none" stroke="black" d="M351.555,-216.411C358.213,-207.781 366.481,-197.062 373.86,-187.497"/>
<polygon fill="black" stroke="black" points="376.715,-189.526 380.052,-179.47 371.173,-185.25 376.715,-189.526"/>
</g>
<!-- Router_r3&#45;&gt;Computer_c2 -->
<g id="edge3" class="edge"><title>Router_r3&#45;&gt;Computer_c2</title>
<path fill="none" stroke="black" d="M310.211,-219.834C291.113,-209.782 266.141,-195.73 246.604,-184.114"/>
<polygon fill="black" stroke="black" points="248.149,-180.959 237.775,-178.803 244.54,-186.957 248.149,-180.959"/>
</g>
<!-- Router_r3&#45;&gt;Computer_c2 -->
<g id="edge15" class="edge"><title>Router_r3&#45;&gt;Computer_c2</title>
<path fill="none" stroke="green" d="M317.747,-217.811C300.677,-207.373 276.317,-193.43 255.627,-182.219"/>
<polygon fill="green" stroke="green" points="257.185,-179.083 246.719,-177.442 253.877,-185.252 257.185,-179.083"/>
</g>
<!-- Server_s2 -->
<g id="node11" class="node"><title>Server_s2</title>
<ellipse fill="none" stroke="blue" cx="447.758" cy="-234" rx="45.2082" ry="18"/>
<text text-anchor="middle" x="447.758" y="-229.8" font-family="Times,serif" font-size="14.00">Server_s2</text>
</g>
<!-- Server_s2&#45;&gt;Router_r2 -->
<g id="edge1" class="edge"><title>Server_s2&#45;&gt;Router_r2</title>
<path fill="none" stroke="black" d="M434.723,-216.411C427.942,-207.781 419.521,-197.062 412.005,-187.497"/>
<polygon fill="black" stroke="black" points="414.629,-185.171 405.698,-179.47 409.125,-189.496 414.629,-185.171"/>
</g>
<!-- VirtualNode -->
<g id="node12" class="node"><title>VirtualNode</title>
<ellipse fill="none" stroke="gray" cx="212.758" cy="-378" rx="53.179" ry="18"/>
<text text-anchor="middle" x="212.758" y="-373.8" font-family="Times,serif" font-size="14.00">VirtualNode</text>
</g>
<!-- VirtualNode&#45;&gt;Server_s1 -->
<g id="edge8" class="edge"><title>VirtualNode&#45;&gt;Server_s1</title>
<path fill="none" stroke="gray" d="M239.171,-362.326C258.155,-351.779 283.922,-337.464 304.489,-326.038"/>
<polygon fill="gray" stroke="gray" points="306.198,-329.093 313.24,-321.177 302.798,-322.974 306.198,-329.093"/>
</g>
<!-- VirtualNode&#45;&gt;Router_r3 -->
<g id="edge7" class="edge"><title>VirtualNode&#45;&gt;Router_r3</title>
<path fill="none" stroke="gray" d="M225.224,-360.459C239.171,-342.229 262.707,-312.272 284.758,-288 294.097,-277.72 304.934,-266.89 314.437,-257.719"/>
<polygon fill="gray" stroke="gray" points="316.907,-260.2 321.719,-250.761 312.071,-255.139 316.907,-260.2"/>
</g>
<!-- VirtualNode&#45;&gt;Computer_c2 -->
<g id="edge9" class="edge"><title>VirtualNode&#45;&gt;Computer_c2</title>
<path fill="none" stroke="gray" d="M174.319,-365.499C102.222,-341.987 -41.4433,-284.789 11.7577,-216 29.0031,-193.702 99.3811,-179.046 152.691,-170.911"/>
<polygon fill="gray" stroke="gray" points="153.387,-174.346 162.767,-169.419 152.362,-167.421 153.387,-174.346"/>
</g>
</g>
</svg>
