<?xml version="1.0" encoding="UTF-8" standalone="no"?>
<!DOCTYPE svg PUBLIC "-//W3C//DTD SVG 1.1//EN"
 "http://www.w3.org/Graphics/SVG/1.1/DTD/svg11.dtd">
<!-- Generated by graphviz version 2.36.0 (20140111.2315)
 -->
<!-- Title: G Pages: 1 -->
<svg width="328pt" height="443pt"
 viewBox="0.00 0.00 328.00 442.67" xmlns="http://www.w3.org/2000/svg" xmlns:xlink="http://www.w3.org/1999/xlink">
<g id="graph0" class="graph" transform="scale(1.33333 1.33333) rotate(0) translate(4 328)">
<title>G</title>
<polygon fill="white" stroke="none" points="-4,4 -4,-328 242,-328 242,4 -4,4"/>
<!-- Server_s2 -->
<g id="node1" class="node"><title>Server_s2</title>
<ellipse fill="none" stroke="black" cx="58" cy="-234" rx="45.2082" ry="18"/>
<text text-anchor="middle" x="58" y="-229.8" font-family="Times,serif" font-size="14.00">Server_s2</text>
</g>
<!-- Router_r2 -->
<g id="node2" class="node"><title>Router_r2</title>
<ellipse fill="none" stroke="black" cx="58" cy="-162" rx="45.4469" ry="18"/>
<text text-anchor="middle" x="58" y="-157.8" font-family="Times,serif" font-size="14.00">Router_r2</text>
</g>
<!-- Server_s2&#45;&gt;Router_r2 -->
<g id="edge1" class="edge"><title>Server_s2&#45;&gt;Router_r2</title>
<path fill="none" stroke="black" d="M58,-215.697C58,-207.983 58,-198.712 58,-190.112"/>
<polygon fill="black" stroke="black" points="61.5001,-190.104 58,-180.104 54.5001,-190.104 61.5001,-190.104"/>
</g>
<!-- Router_r1 -->
<g id="node3" class="node"><title>Router_r1</title>
<ellipse fill="none" stroke="black" cx="58" cy="-90" rx="45.4469" ry="18"/>
<text text-anchor="middle" x="58" y="-85.8" font-family="Times,serif" font-size="14.00">Router_r1</text>
</g>
<!-- Router_r2&#45;&gt;Router_r1 -->
<g id="edge4" class="edge"><title>Router_r2&#45;&gt;Router_r1</title>
<path fill="none" stroke="black" d="M58,-143.697C58,-135.983 58,-126.712 58,-118.112"/>
<polygon fill="black" stroke="black" points="61.5001,-118.104 58,-108.104 54.5001,-118.104 61.5001,-118.104"/>
</g>
<!-- Computer_c1 -->
<g id="node4" class="node"><title>Computer_c1</title>
<ellipse fill="none" stroke="black" cx="58" cy="-18" rx="58.368" ry="18"/>
<text text-anchor="middle" x="58" y="-13.8" font-family="Times,serif" font-size="14.00">Computer_c1</text>
</g>
<!-- Router_r1&#45;&gt;Computer_c1 -->
<g id="edge2" class="edge"><title>Router_r1&#45;&gt;Computer_c1</title>
<path fill="none" stroke="black" d="M58,-71.6966C58,-63.9827 58,-54.7125 58,-46.1124"/>
<polygon fill="black" stroke="black" points="61.5001,-46.1043 58,-36.1043 54.5001,-46.1044 61.5001,-46.1043"/>
</g>
<!-- Router_r3 -->
<g id="node5" class="node"><title>Router_r3</title>
<ellipse fill="none" stroke="black" cx="173" cy="-234" rx="45.4469" ry="18"/>
<text text-anchor="middle" x="173" y="-229.8" font-family="Times,serif" font-size="14.00">Router_r3</text>
</g>
<!-- Router_r3&#45;&gt;Router_r2 -->
<g id="edge5" class="edge"><title>Router_r3&#45;&gt;Router_r2</title>
<path fill="none" stroke="black" d="M149.172,-218.496C132.211,-208.172 109.214,-194.174 90.5603,-182.819"/>
<polygon fill="black" stroke="black" points="92.1594,-179.695 81.7975,-177.485 88.5197,-185.675 92.1594,-179.695"/>
</g>
<!-- Computer_c2 -->
<g id="node6" class="node"><title>Computer_c2</title>
<ellipse fill="none" stroke="black" cx="180" cy="-162" rx="58.368" ry="18"/>
<text text-anchor="middle" x="180" y="-157.8" font-family="Times,serif" font-size="14.00">Computer_c2</text>
</g>
<!-- Router_r3&#45;&gt;Computer_c2 -->
<g id="edge3" class="edge"><title>Router_r3&#45;&gt;Computer_c2</title>
<path fill="none" stroke="black" d="M174.73,-215.697C175.502,-207.983 176.429,-198.712 177.289,-190.112"/>
<polygon fill="black" stroke="black" points="180.777,-190.403 178.29,-180.104 173.812,-189.706 180.777,-190.403"/>
</g>
<!-- Server_s1 -->
<g id="node7" class="node"><title>Server_s1</title>
<ellipse fill="none" stroke="black" cx="173" cy="-306" rx="45.2082" ry="18"/>
<text text-anchor="middle" x="173" y="-301.8" font-family="Times,serif" font-size="14.00">Server_s1</text>
</g>
<!-- Server_s1&#45;&gt;Router_r3 -->
<g id="edge6" class="edge"><title>Server_s1&#45;&gt;Router_r3</title>
<path fill="none" stroke="black" d="M173,-287.697C173,-279.983 173,-270.712 173,-262.112"/>
<polygon fill="black" stroke="black" points="176.5,-262.104 173,-252.104 169.5,-262.104 176.5,-262.104"/>
</g>
</g>
</svg>
